[IMG]http://www.shotpix.com/images/89057482887641330301.jpg[/IMG]

General
Complete name                            : Miranda Lambert - Mama's Broken Heart [Music Video] 720p [Sbyky].mp4
Format                                   : MPEG-4
Format profile                           : Base Media / Version 2
Codec ID                                 : mp42
File size                                : 43.5 MiB
Duration                                 : 3mn 1s
Overall bit rate mode                    : Variable
Overall bit rate                         : 2 013 Kbps
Encoded date                             : UTC 2013-04-08 04:02:22
Tagged date                              : UTC 2013-04-08 04:02:22

Video
ID                                       : 1
Format                                   : AVC
Format/Info                              : Advanced Video Codec
Format profile                           : High@L3.1
Format settings, CABAC                   : Yes
Format settings, ReFrames                : 1 frame
Codec ID                                 : avc1
Codec ID/Info                            : Advanced Video Coding
Duration                                 : 3mn 1s
Bit rate                                 : 1 818 Kbps
Maximum bit rate                         : 3 624 Kbps
Width                                    : 1 280 pixels
Height                                   : 720 pixels
Display aspect ratio                     : 16:9
Frame rate mode                          : Constant
Frame rate                               : 29.970 fps
Color space                              : YUV
Chroma subsampling                       : 4:2:0
Bit depth                                : 8 bits
Scan type                                : Progressive
Bits/(Pixel*Frame)                       : 0.066
Stream size                              : 39.3 MiB (90%)
Tagged date                              : UTC 2013-04-08 04:02:25

Audio
ID                                       : 2
Format                                   : AAC
Format/Info                              : Advanced Audio Codec
Format profile                           : LC
Codec ID                                 : 40
Duration                                 : 3mn 1s
Bit rate mode                            : Variable
Bit rate                                 : 192 Kbps
Maximum bit rate                         : 201 Kbps
Channel(s)                               : 2 channels
Channel positions                        : Front: L R
Sampling rate                            : 44.1 KHz
Compression mode                         : Lossy
Stream size                              : 4.15 MiB (10%)
Title                                    : IsoMedia File Produced by Google, 5-11-2011
Encoded date                             : UTC 2013-04-08 04:02:24
Tagged date                              : UTC 2013-04-08 04:02:25

Shared By Sbyky
[IMG]http://www.shotpix.com/images/76014917432015785852.gif[/IMG]
[IMG]http://www.shotpix.com/images/54100788659511547411.gif[/IMG]